# xmcd
#
# Track frame offsets: 
#        150
#        12743
#        24700
#        38600
#        49356
#        64521
#        75823
#        89532
#        100468
#        115504
#        126484
#        138712
#        151503
#        164135
#        176188
#
# Disc length: 2492 seconds
#
# Revision: 0
# Processed by: cddbd v1.5.2PL0 Copyright (c) Steve Scherf et al.
# Submitted via: ExactAudioCopy v0.95b4
#
DISCID=c909ba0f
DTITLE=Aretha Franklin - The Age of Aretha
DYEAR=2007
DGENRE=Blues
TTITLE0=Today I Sing the Blues
TTITLE1=(Blue) By Myself
TTITLE2=All Night Long
TTITLE3=Nobody Like You
TTITLE4=Sweet Lover
TTITLE5=Once in a While
TTITLE6=God Bless the Child
TTITLE7=Muddy WAter
TTITLE8=Won't be Long
TTITLE9=Soulville
TTITLE10=Runnin' Out of Fools
TTITLE11=Walk on By
TTITLE12=Mockingbird
TTITLE13=You'll Lose a Good Thing
TTITLE14=Bit of Soul
EXTD=
EXTT0=
EXTT1=
EXTT2=
EXTT3=
EXTT4=
EXTT5=
EXTT6=
EXTT7=
EXTT8=
EXTT9=
EXTT10=
EXTT11=
EXTT12=
EXTT13=
EXTT14=
PLAYORDER=
